<svg width="373" height="368" viewBox="0 0 373 368" fill="none" xmlns="http://www.w3.org/2000/svg">
<path d="M373 190.343C348.803 179.49 324.526 168.718 306.841 154.65C289.155 140.663 278.062 123.46 257.643 110.357C237.144 97.3338 207.401 88.3304 192.529 69.7608C177.657 51.1912 177.657 23.1358 177.657 -5H373V190.343Z" fill="#443AD8"/>
<g opacity="0.5">
<path d="M373 368C326.797 347.278 280.441 326.709 246.671 299.847C212.902 273.138 191.719 240.29 152.73 215.27C113.588 190.403 56.7942 173.211 28.3971 137.753C0 102.295 0 48.7243 0 -5H373V368Z" fill="#443AD8"/>
</g>
<g opacity="0.5">
<path d="M373 286.004C336.954 269.837 300.788 253.79 274.442 232.833C248.096 211.996 231.569 186.368 201.152 166.848C170.614 147.448 126.305 134.035 104.15 106.372C81.9956 78.7086 81.9956 36.9142 81.9956 -5H373V286.004Z" fill="#443AD8"/>
</g>
</svg>
