<svg width="418" height="418" viewBox="0 0 418 418" fill="none" xmlns="http://www.w3.org/2000/svg">
<path d="M0 175C28.1 186.8 56.1 198.6 86.9 208.3C117.6 218 151 225.7 171.8 246.2C192.6 266.7 200.9 300 210.6 330.7C220.4 361.5 231.7 389.8 243 418H0V175Z" fill="#443AD8"/>
<g opacity="0.5">
<path d="M0 97C37.1198 112.588 74.1074 128.175 114.794 140.989C155.348 153.802 199.469 163.974 226.946 191.054C254.422 218.135 265.386 262.123 278.2 302.678C291.146 343.364 306.073 380.748 321 418H0V97Z" fill="#443AD8"/>
</g>
<g opacity="0.5">
<path d="M0 0C48.3366 20.2979 96.5012 40.5959 149.482 57.2815C202.291 73.9671 259.745 87.2123 295.524 122.476C331.304 157.739 345.581 215.021 362.267 267.83C379.124 320.811 398.562 369.491 418 418H0V0Z" fill="#443AD8"/>
</g>
</svg>
